<svg xmlns="http://www.w3.org/2000/svg" xmlns:xlink="http://www.w3.org/1999/xlink" version="1.1" class="marks" width="1952" height="480" viewBox="0 0 1952 480"><rect width="1952" height="480" fill="white"/><g fill="none" stroke-miterlimit="10" transform="translate(50,140)"><g class="mark-group role-frame root" role="graphics-object" aria-roledescription="group mark container"><g transform="translate(0,0)"><path class="background" aria-hidden="true" d="M0.5,0.5h1700v200h-1700Z" stroke="#ddd"/><g><g class="mark-group role-axis" aria-hidden="true"><g transform="translate(0.5,0.5)"><path class="background" aria-hidden="true" d="M0,0h0v0h0Z" pointer-events="none"/><g><g class="mark-rule role-axis-grid" pointer-events="none"><line transform="translate(0,200)" x2="1700" y2="0" stroke="#ddd" stroke-width="1" opacity="1"/><line transform="translate(0,150)" x2="1700" y2="0" stroke="#ddd" stroke-width="1" opacity="1"/><line transform="translate(0,100)" x2="1700" y2="0" stroke="#ddd" stroke-width="1" opacity="1"/><line transform="translate(0,50)" x2="1700" y2="0" stroke="#ddd" stroke-width="1" opacity="1"/><line transform="translate(0,0)" x2="1700" y2="0" stroke="#ddd" stroke-width="1" opacity="1"/></g></g><path class="foreground" aria-hidden="true" d="" pointer-events="none" display="none"/></g></g><g class="mark-group role-axis" role="graphics-symbol" aria-roledescription="axis" aria-label="X-axis titled 'Salle / Room' for a discrete scale with 85 values: EXT1, B103, P203, S201, D202, ending with C101"><g transform="translate(0.5,200.5)"><path class="background" aria-hidden="true" d="M0,0h0v0h0Z" pointer-events="none"/><g><g class="mark-rule role-axis-tick" pointer-events="none"><line transform="translate(10,0)" x2="0" y2="5" stroke="#888" stroke-width="1" opacity="1"/><line transform="translate(30,0)" x2="0" y2="5" stroke="#888" stroke-width="1" opacity="1"/><line transform="translate(50,0)" x2="0" y2="5" stroke="#888" stroke-width="1" opacity="1"/><line transform="translate(70,0)" x2="0" y2="5" stroke="#888" stroke-width="1" opacity="1"/><line transform="translate(90,0)" x2="0" y2="5" stroke="#888" stroke-width="1" opacity="1"/><line transform="translate(110,0)" x2="0" y2="5" stroke="#888" stroke-width="1" opacity="1"/><line transform="translate(130,0)" x2="0" y2="5" stroke="#888" stroke-width="1" opacity="1"/><line transform="translate(150,0)" x2="0" y2="5" stroke="#888" stroke-width="1" opacity="1"/><line transform="translate(170,0)" x2="0" y2="5" stroke="#888" stroke-width="1" opacity="1"/><line transform="translate(190,0)" x2="0" y2="5" stroke="#888" stroke-width="1" opacity="1"/><line transform="translate(210,0)" x2="0" y2="5" stroke="#888" stroke-width="1" opacity="1"/><line transform="translate(230,0)" x2="0" y2="5" stroke="#888" stroke-width="1" opacity="1"/><line transform="translate(250,0)" x2="0" y2="5" stroke="#888" stroke-width="1" opacity="1"/><line transform="translate(270,0)" x2="0" y2="5" stroke="#888" stroke-width="1" opacity="1"/><line transform="translate(290,0)" x2="0" y2="5" stroke="#888" stroke-width="1" opacity="1"/><line transform="translate(310,0)" x2="0" y2="5" stroke="#888" stroke-width="1" opacity="1"/><line transform="translate(330,0)" x2="0" y2="5" stroke="#888" stroke-width="1" opacity="1"/><line transform="translate(350,0)" x2="0" y2="5" stroke="#888" stroke-width="1" opacity="1"/><line transform="translate(370,0)" x2="0" y2="5" stroke="#888" stroke-width="1" opacity="1"/><line transform="translate(390,0)" x2="0" y2="5" stroke="#888" stroke-width="1" opacity="1"/><line transform="translate(410,0)" x2="0" y2="5" stroke="#888" stroke-width="1" opacity="1"/><line transform="translate(430,0)" x2="0" y2="5" stroke="#888" stroke-width="1" opacity="1"/><line transform="translate(450,0)" x2="0" y2="5" stroke="#888" stroke-width="1" opacity="1"/><line transform="translate(470,0)" x2="0" y2="5" stroke="#888" stroke-width="1" opacity="1"/><line transform="translate(490,0)" x2="0" y2="5" stroke="#888" stroke-width="1" opacity="1"/><line transform="translate(510,0)" x2="0" y2="5" stroke="#888" stroke-width="1" opacity="1"/><line transform="translate(530,0)" x2="0" y2="5" stroke="#888" stroke-width="1" opacity="1"/><line transform="translate(550,0)" x2="0" y2="5" stroke="#888" stroke-width="1" opacity="1"/><line transform="translate(570,0)" x2="0" y2="5" stroke="#888" stroke-width="1" opacity="1"/><line transform="translate(590,0)" x2="0" y2="5" stroke="#888" stroke-width="1" opacity="1"/><line transform="translate(610,0)" x2="0" y2="5" stroke="#888" stroke-width="1" opacity="1"/><line transform="translate(630,0)" x2="0" y2="5" stroke="#888" stroke-width="1" opacity="1"/><line transform="translate(650,0)" x2="0" y2="5" stroke="#888" stroke-width="1" opacity="1"/><line transform="translate(670,0)" x2="0" y2="5" stroke="#888" stroke-width="1" opacity="1"/><line transform="translate(690,0)" x2="0" y2="5" stroke="#888" stroke-width="1" opacity="1"/><line transform="translate(710,0)" x2="0" y2="5" stroke="#888" stroke-width="1" opacity="1"/><line transform="translate(730,0)" x2="0" y2="5" stroke="#888" stroke-width="1" opacity="1"/><line transform="translate(750,0)" x2="0" y2="5" stroke="#888" stroke-width="1" opacity="1"/><line transform="translate(770,0)" x2="0" y2="5" stroke="#888" stroke-width="1" opacity="1"/><line transform="translate(790,0)" x2="0" y2="5" stroke="#888" stroke-width="1" opacity="1"/><line transform="translate(810,0)" x2="0" y2="5" stroke="#888" stroke-width="1" opacity="1"/><line transform="translate(830,0)" x2="0" y2="5" stroke="#888" stroke-width="1" opacity="1"/><line transform="translate(850,0)" x2="0" y2="5" stroke="#888" stroke-width="1" opacity="1"/><line transform="translate(870,0)" x2="0" y2="5" stroke="#888" stroke-width="1" opacity="1"/><line transform="translate(890,0)" x2="0" y2="5" stroke="#888" stroke-width="1" opacity="1"/><line transform="translate(910,0)" x2="0" y2="5" stroke="#888" stroke-width="1" opacity="1"/><line transform="translate(930,0)" x2="0" y2="5" stroke="#888" stroke-width="1" opacity="1"/><line transform="translate(950,0)" x2="0" y2="5" stroke="#888" stroke-width="1" opacity="1"/><line transform="translate(970,0)" x2="0" y2="5" stroke="#888" stroke-width="1" opacity="1"/><line transform="translate(990,0)" x2="0" y2="5" stroke="#888" stroke-width="1" opacity="1"/><line transform="translate(1010,0)" x2="0" y2="5" stroke="#888" stroke-width="1" opacity="1"/><line transform="translate(1030,0)" x2="0" y2="5" stroke="#888" stroke-width="1" opacity="1"/><line transform="translate(1050,0)" x2="0" y2="5" stroke="#888" stroke-width="1" opacity="1"/><line transform="translate(1070,0)" x2="0" y2="5" stroke="#888" stroke-width="1" opacity="1"/><line transform="translate(1090,0)" x2="0" y2="5" stroke="#888" stroke-width="1" opacity="1"/><line transform="translate(1110,0)" x2="0" y2="5" stroke="#888" stroke-width="1" opacity="1"/><line transform="translate(1130,0)" x2="0" y2="5" stroke="#888" stroke-width="1" opacity="1"/><line transform="translate(1150,0)" x2="0" y2="5" stroke="#888" stroke-width="1" opacity="1"/><line transform="translate(1170,0)" x2="0" y2="5" stroke="#888" stroke-width="1" opacity="1"/><line transform="translate(1190,0)" x2="0" y2="5" stroke="#888" stroke-width="1" opacity="1"/><line transform="translate(1210,0)" x2="0" y2="5" stroke="#888" stroke-width="1" opacity="1"/><line transform="translate(1230,0)" x2="0" y2="5" stroke="#888" stroke-width="1" opacity="1"/><line transform="translate(1250,0)" x2="0" y2="5" stroke="#888" stroke-width="1" opacity="1"/><line transform="translate(1270,0)" x2="0" y2="5" stroke="#888" stroke-width="1" opacity="1"/><line transform="translate(1290,0)" x2="0" y2="5" stroke="#888" stroke-width="1" opacity="1"/><line transform="translate(1310,0)" x2="0" y2="5" stroke="#888" stroke-width="1" opacity="1"/><line transform="translate(1330,0)" x2="0" y2="5" stroke="#888" stroke-width="1" opacity="1"/><line transform="translate(1350,0)" x2="0" y2="5" stroke="#888" stroke-width="1" opacity="1"/><line transform="translate(1370,0)" x2="0" y2="5" stroke="#888" stroke-width="1" opacity="1"/><line transform="translate(1390,0)" x2="0" y2="5" stroke="#888" stroke-width="1" opacity="1"/><line transform="translate(1410,0)" x2="0" y2="5" stroke="#888" stroke-width="1" opacity="1"/><line transform="translate(1430,0)" x2="0" y2="5" stroke="#888" stroke-width="1" opacity="1"/><line transform="translate(1450,0)" x2="0" y2="5" stroke="#888" stroke-width="1" opacity="1"/><line transform="translate(1470,0)" x2="0" y2="5" stroke="#888" stroke-width="1" opacity="1"/><line transform="translate(1490,0)" x2="0" y2="5" stroke="#888" stroke-width="1" opacity="1"/><line transform="translate(1510,0)" x2="0" y2="5" stroke="#888" stroke-width="1" opacity="1"/><line transform="translate(1530,0)" x2="0" y2="5" stroke="#888" stroke-width="1" opacity="1"/><line transform="translate(1550,0)" x2="0" y2="5" stroke="#888" stroke-width="1" opacity="1"/><line transform="translate(1570,0)" x2="0" y2="5" stroke="#888" stroke-width="1" opacity="1"/><line transform="translate(1590,0)" x2="0" y2="5" stroke="#888" stroke-width="1" opacity="1"/><line transform="translate(1610,0)" x2="0" y2="5" stroke="#888" stroke-width="1" opacity="1"/><line transform="translate(1630,0)" x2="0" y2="5" stroke="#888" stroke-width="1" opacity="1"/><line transform="translate(1650,0)" x2="0" y2="5" stroke="#888" stroke-width="1" opacity="1"/><line transform="translate(1670,0)" x2="0" y2="5" stroke="#888" stroke-width="1" opacity="1"/><line transform="translate(1690,0)" x2="0" y2="5" stroke="#888" stroke-width="1" opacity="1"/></g><g class="mark-text role-axis-label" pointer-events="none"><text text-anchor="end" transform="translate(9.5,7) rotate(270) translate(0,4)" font-family="sans-serif" font-size="12px" fill="#000" opacity="1">EXT1</text><text text-anchor="end" transform="translate(29.5,7) rotate(270) translate(0,4)" font-family="sans-serif" font-size="12px" fill="#000" opacity="1">B103</text><text text-anchor="end" transform="translate(49.5,7) rotate(270) translate(0,4)" font-family="sans-serif" font-size="12px" fill="#000" opacity="1">P203</text><text text-anchor="end" transform="translate(69.5,7) rotate(270) translate(0,4)" font-family="sans-serif" font-size="12px" fill="#000" opacity="1">S201</text><text text-anchor="end" transform="translate(89.5,7) rotate(270) translate(0,4)" font-family="sans-serif" font-size="12px" fill="#000" opacity="1">D202</text><text text-anchor="end" transform="translate(109.5,7) rotate(270) translate(0,4)" font-family="sans-serif" font-size="12px" fill="#000" opacity="1">S101</text><text text-anchor="end" transform="translate(129.5,7) rotate(270) translate(0,4)" font-family="sans-serif" font-size="12px" fill="#000" opacity="1">S203</text><text text-anchor="end" transform="translate(149.5,7) rotate(270) translate(0,4)" font-family="sans-serif" font-size="12px" fill="#000" opacity="1">S103</text><text text-anchor="end" transform="translate(169.5,7) rotate(270) translate(0,4)" font-family="sans-serif" font-size="12px" fill="#000" opacity="1">P104</text><text text-anchor="end" transform="translate(189.5,7) rotate(270) translate(0,4)" font-family="sans-serif" font-size="12px" fill="#000" opacity="1">B101</text><text text-anchor="end" transform="translate(209.5,7) rotate(270) translate(0,4)" font-family="sans-serif" font-size="12px" fill="#000" opacity="1">P202</text><text text-anchor="end" transform="translate(229.5,7) rotate(270) translate(0,4)" font-family="sans-serif" font-size="12px" fill="#000" opacity="1">P101</text><text text-anchor="end" transform="translate(249.5,7) rotate(270) translate(0,4)" font-family="sans-serif" font-size="12px" fill="#000" opacity="1">B202</text><text text-anchor="end" transform="translate(269.5,7) rotate(270) translate(0,4)" font-family="sans-serif" font-size="12px" fill="#000" opacity="1">S104</text><text text-anchor="end" transform="translate(289.5,7) rotate(270) translate(0,4)" font-family="sans-serif" font-size="12px" fill="#000" opacity="1">P102</text><text text-anchor="end" transform="translate(309.5,7) rotate(270) translate(0,4)" font-family="sans-serif" font-size="12px" fill="#000" opacity="1">P103</text><text text-anchor="end" transform="translate(329.5,7) rotate(270) translate(0,4)" font-family="sans-serif" font-size="12px" fill="#000" opacity="1">S204</text><text text-anchor="end" transform="translate(349.5,7) rotate(270) translate(0,4)" font-family="sans-serif" font-size="12px" fill="#000" opacity="1">S102</text><text text-anchor="end" transform="translate(369.5,7) rotate(270) translate(0,4)" font-family="sans-serif" font-size="12px" fill="#000" opacity="1">D201</text><text text-anchor="end" transform="translate(389.5,7) rotate(270) translate(0,4)" font-family="sans-serif" font-size="12px" fill="#000" opacity="1">C002</text><text text-anchor="end" transform="translate(409.5,7) rotate(270) translate(0,4)" font-family="sans-serif" font-size="12px" fill="#000" opacity="1">A108</text><text text-anchor="end" transform="translate(429.5,7) rotate(270) translate(0,4)" font-family="sans-serif" font-size="12px" fill="#000" opacity="1">P201</text><text text-anchor="end" transform="translate(449.5,7) rotate(270) translate(0,4)" font-family="sans-serif" font-size="12px" fill="#000" opacity="1">C105</text><text text-anchor="end" transform="translate(469.5,7) rotate(270) translate(0,4)" font-family="sans-serif" font-size="12px" fill="#000" opacity="1">C207</text><text text-anchor="end" transform="translate(489.5,7) rotate(270) translate(0,4)" font-family="sans-serif" font-size="12px" fill="#000" opacity="1">C203</text><text text-anchor="end" transform="translate(509.5,7) rotate(270) translate(0,4)" font-family="sans-serif" font-size="12px" fill="#000" opacity="1">B201</text><text text-anchor="end" transform="translate(529.5,7) rotate(270) translate(0,4)" font-family="sans-serif" font-size="12px" fill="#000" opacity="1">B203</text><text text-anchor="end" transform="translate(549.5,7) rotate(270) translate(0,4)" font-family="sans-serif" font-size="12px" fill="#000" opacity="1">C103</text><text text-anchor="end" transform="translate(569.5,7) rotate(270) translate(0,4)" font-family="sans-serif" font-size="12px" fill="#000" opacity="1">J002</text><text text-anchor="end" transform="translate(589.5,7) rotate(270) translate(0,4)" font-family="sans-serif" font-size="12px" fill="#000" opacity="1">C204</text><text text-anchor="end" transform="translate(609.5,7) rotate(270) translate(0,4)" font-family="sans-serif" font-size="12px" fill="#000" opacity="1">A001</text><text text-anchor="end" transform="translate(629.5,7) rotate(270) translate(0,4)" font-family="sans-serif" font-size="12px" fill="#000" opacity="1">S202</text><text text-anchor="end" transform="translate(649.5,7) rotate(270) translate(0,4)" font-family="sans-serif" font-size="12px" fill="#000" opacity="1">A105</text><text text-anchor="end" transform="translate(669.5,7) rotate(270) translate(0,4)" font-family="sans-serif" font-size="12px" fill="#000" opacity="1">A206</text><text text-anchor="end" transform="translate(689.5,7) rotate(270) translate(0,4)" font-family="sans-serif" font-size="12px" fill="#000" opacity="1">P204</text><text text-anchor="end" transform="translate(709.5,7) rotate(270) translate(0,4)" font-family="sans-serif" font-size="12px" fill="#000" opacity="1">B205</text><text text-anchor="end" transform="translate(729.5,7) rotate(270) translate(0,4)" font-family="sans-serif" font-size="12px" fill="#000" opacity="1">B105</text><text text-anchor="end" transform="translate(749.5,7) rotate(270) translate(0,4)" font-family="sans-serif" font-size="12px" fill="#000" opacity="1">A205</text><text text-anchor="end" transform="translate(769.5,7) rotate(270) translate(0,4)" font-family="sans-serif" font-size="12px" fill="#000" opacity="1">A210</text><text text-anchor="end" transform="translate(789.5,7) rotate(270) translate(0,4)" font-family="sans-serif" font-size="12px" fill="#000" opacity="1">C104</text><text text-anchor="end" transform="translate(809.5,7) rotate(270) translate(0,4)" font-family="sans-serif" font-size="12px" fill="#000" opacity="1">C210</text><text text-anchor="end" transform="translate(829.5,7) rotate(270) translate(0,4)" font-family="sans-serif" font-size="12px" fill="#000" opacity="1">B208</text><text text-anchor="end" transform="translate(849.5,7) rotate(270) translate(0,4)" font-family="sans-serif" font-size="12px" fill="#000" opacity="1">A208</text><text text-anchor="end" transform="translate(869.5,7) rotate(270) translate(0,4)" font-family="sans-serif" font-size="12px" fill="#000" opacity="1">M207</text><text text-anchor="end" transform="translate(889.5,7) rotate(270) translate(0,4)" font-family="sans-serif" font-size="12px" fill="#000" opacity="1">D102</text><text text-anchor="end" transform="translate(909.5,7) rotate(270) translate(0,4)" font-family="sans-serif" font-size="12px" fill="#000" opacity="1">D101</text><text text-anchor="end" transform="translate(929.5,7) rotate(270) translate(0,4)" font-family="sans-serif" font-size="12px" fill="#000" opacity="1">C205</text><text text-anchor="end" transform="translate(949.5,7) rotate(270) translate(0,4)" font-family="sans-serif" font-size="12px" fill="#000" opacity="1">C001</text><text text-anchor="end" transform="translate(969.5,7) rotate(270) translate(0,4)" font-family="sans-serif" font-size="12px" fill="#000" opacity="1">C102</text><text text-anchor="end" transform="translate(989.5,7) rotate(270) translate(0,4)" font-family="sans-serif" font-size="12px" fill="#000" opacity="1">B204</text><text text-anchor="end" transform="translate(1009.5,7) rotate(270) translate(0,4)" font-family="sans-serif" font-size="12px" fill="#000" opacity="1">D206</text><text text-anchor="end" transform="translate(1029.5,7) rotate(270) translate(0,4)" font-family="sans-serif" font-size="12px" fill="#000" opacity="1">A201</text><text text-anchor="end" transform="translate(1049.5,7) rotate(270) translate(0,4)" font-family="sans-serif" font-size="12px" fill="#000" opacity="1">C201</text><text text-anchor="end" transform="translate(1069.5,7) rotate(270) translate(0,4)" font-family="sans-serif" font-size="12px" fill="#000" opacity="1">C208</text><text text-anchor="end" transform="translate(1089.5,7) rotate(270) translate(0,4)" font-family="sans-serif" font-size="12px" fill="#000" opacity="1">A103</text><text text-anchor="end" transform="translate(1109.5,7) rotate(270) translate(0,4)" font-family="sans-serif" font-size="12px" fill="#000" opacity="1">N101</text><text text-anchor="end" transform="translate(1129.5,7) rotate(270) translate(0,4)" font-family="sans-serif" font-size="12px" fill="#000" opacity="1">B106</text><text text-anchor="end" transform="translate(1149.5,7) rotate(270) translate(0,4)" font-family="sans-serif" font-size="12px" fill="#000" opacity="1">B207</text><text text-anchor="end" transform="translate(1169.5,7) rotate(270) translate(0,4)" font-family="sans-serif" font-size="12px" fill="#000" opacity="1">B007</text><text text-anchor="end" transform="translate(1189.5,7) rotate(270) translate(0,4)" font-family="sans-serif" font-size="12px" fill="#000" opacity="1">D105</text><text text-anchor="end" transform="translate(1209.5,7) rotate(270) translate(0,4)" font-family="sans-serif" font-size="12px" fill="#000" opacity="1">D106</text><text text-anchor="end" transform="translate(1229.5,7) rotate(270) translate(0,4)" font-family="sans-serif" font-size="12px" fill="#000" opacity="1">A102</text><text text-anchor="end" transform="translate(1249.5,7) rotate(270) translate(0,4)" font-family="sans-serif" font-size="12px" fill="#000" opacity="1">M102</text><text text-anchor="end" transform="translate(1269.5,7) rotate(270) translate(0,4)" font-family="sans-serif" font-size="12px" fill="#000" opacity="1">C206</text><text text-anchor="end" transform="translate(1289.5,7) rotate(270) translate(0,4)" font-family="sans-serif" font-size="12px" fill="#000" opacity="1">A203</text><text text-anchor="end" transform="translate(1309.5,7) rotate(270) translate(0,4)" font-family="sans-serif" font-size="12px" fill="#000" opacity="1">A002</text><text text-anchor="end" transform="translate(1329.5,7) rotate(270) translate(0,4)" font-family="sans-serif" font-size="12px" fill="#000" opacity="1">B210</text><text text-anchor="end" transform="translate(1349.5,7) rotate(270) translate(0,4)" font-family="sans-serif" font-size="12px" fill="#000" opacity="1">B001</text><text text-anchor="end" transform="translate(1369.5,7) rotate(270) translate(0,4)" font-family="sans-serif" font-size="12px" fill="#000" opacity="1">J101</text><text text-anchor="end" transform="translate(1389.5,7) rotate(270) translate(0,4)" font-family="sans-serif" font-size="12px" fill="#000" opacity="1">M208</text><text text-anchor="end" transform="translate(1409.5,7) rotate(270) translate(0,4)" font-family="sans-serif" font-size="12px" fill="#000" opacity="1">J004</text><text text-anchor="end" transform="translate(1429.5,7) rotate(270) translate(0,4)" font-family="sans-serif" font-size="12px" fill="#000" opacity="1">B209</text><text text-anchor="end" transform="translate(1449.5,7) rotate(270) translate(0,4)" font-family="sans-serif" font-size="12px" fill="#000" opacity="1">A207</text><text text-anchor="end" transform="translate(1469.5,7) rotate(270) translate(0,4)" font-family="sans-serif" font-size="12px" fill="#000" opacity="1">D002</text><text text-anchor="end" transform="translate(1489.5,7) rotate(270) translate(0,4)" font-family="sans-serif" font-size="12px" fill="#000" opacity="1">J105</text><text text-anchor="end" transform="translate(1509.5,7) rotate(270) translate(0,4)" font-family="sans-serif" font-size="12px" fill="#000" opacity="1">J102</text><text text-anchor="end" transform="translate(1529.5,7) rotate(270) translate(0,4)" font-family="sans-serif" font-size="12px" fill="#000" opacity="1">A212</text><text text-anchor="end" transform="translate(1549.5,7) rotate(270) translate(0,4)" font-family="sans-serif" font-size="12px" fill="#000" opacity="1">IUT1</text><text text-anchor="end" transform="translate(1569.5,7) rotate(270) translate(0,4)" font-family="sans-serif" font-size="12px" fill="#000" opacity="1">G002</text><text text-anchor="end" transform="translate(1589.5,7) rotate(270) translate(0,4)" font-family="sans-serif" font-size="12px" fill="#000" opacity="1">M204</text><text text-anchor="end" transform="translate(1609.5,7) rotate(270) translate(0,4)" font-family="sans-serif" font-size="12px" fill="#000" opacity="1">C202</text><text text-anchor="end" transform="translate(1629.5,7) rotate(270) translate(0,4)" font-family="sans-serif" font-size="12px" fill="#000" opacity="1">SPOR</text><text text-anchor="end" transform="translate(1649.5,7) rotate(270) translate(0,4)" font-family="sans-serif" font-size="12px" fill="#000" opacity="1">B005</text><text text-anchor="end" transform="translate(1669.5,7) rotate(270) translate(0,4)" font-family="sans-serif" font-size="12px" fill="#000" opacity="1">D108</text><text text-anchor="end" transform="translate(1689.5,7) rotate(270) translate(0,4)" font-family="sans-serif" font-size="12px" fill="#000" opacity="1">C101</text></g><g class="mark-rule role-axis-domain" pointer-events="none"><line transform="translate(0,0)" x2="1700" y2="0" stroke="#888" stroke-width="1" opacity="1"/></g><g class="mark-text role-axis-title" pointer-events="none"><text text-anchor="middle" transform="translate(850,60)" font-family="sans-serif" font-size="14px" font-weight="bold" fill="#000" opacity="1">Salle / Room</text></g></g><path class="foreground" aria-hidden="true" d="" pointer-events="none" display="none"/></g></g><g class="mark-group role-axis" role="graphics-symbol" aria-roledescription="axis" aria-label="Y-axis titled 'Taux d'occupation (%) / Occupancy Rate (%)' for a linear scale with values from 0 to 80"><g transform="translate(0.5,0.5)"><path class="background" aria-hidden="true" d="M0,0h0v0h0Z" pointer-events="none"/><g><g class="mark-rule role-axis-tick" pointer-events="none"><line transform="translate(0,200)" x2="-5" y2="0" stroke="#888" stroke-width="1" opacity="1"/><line transform="translate(0,150)" x2="-5" y2="0" stroke="#888" stroke-width="1" opacity="1"/><line transform="translate(0,100)" x2="-5" y2="0" stroke="#888" stroke-width="1" opacity="1"/><line transform="translate(0,50)" x2="-5" y2="0" stroke="#888" stroke-width="1" opacity="1"/><line transform="translate(0,0)" x2="-5" y2="0" stroke="#888" stroke-width="1" opacity="1"/></g><g class="mark-text role-axis-label" pointer-events="none"><text text-anchor="end" transform="translate(-7,204)" font-family="sans-serif" font-size="12px" fill="#000" opacity="1">0</text><text text-anchor="end" transform="translate(-7,154)" font-family="sans-serif" font-size="12px" fill="#000" opacity="1">20</text><text text-anchor="end" transform="translate(-7,104)" font-family="sans-serif" font-size="12px" fill="#000" opacity="1">40</text><text text-anchor="end" transform="translate(-7,54)" font-family="sans-serif" font-size="12px" fill="#000" opacity="1">60</text><text text-anchor="end" transform="translate(-7,4)" font-family="sans-serif" font-size="12px" fill="#000" opacity="1">80</text></g><g class="mark-rule role-axis-domain" pointer-events="none"><line transform="translate(0,200)" x2="0" y2="-200" stroke="#888" stroke-width="1" opacity="1"/></g><g class="mark-text role-axis-title" pointer-events="none"><text text-anchor="middle" transform="translate(-30,100) rotate(-90) translate(0,-3)" font-family="sans-serif" font-size="14px" font-weight="bold" fill="#000" opacity="1">Taux d'occupation (%) / Occupancy Rate (%)</text></g></g><path class="foreground" aria-hidden="true" d="" pointer-events="none" display="none"/></g></g><g class="mark-rect role-mark marks" role="graphics-object" aria-roledescription="rect mark container"><path aria-label="Room: EXT1; OccupancyRate: 71.5277777778" role="graphics-symbol" aria-roledescription="bar" d="M1,21.180555555555536h18v178.81944444444446h-18Z" fill="rgb(10, 74, 144)"/><path aria-label="Room: B103; OccupancyRate: 58.3333333333" role="graphics-symbol" aria-roledescription="bar" d="M21,54.16666666666665h18v145.83333333333334h-18Z" fill="rgb(31, 109, 177)"/><path aria-label="Room: P203; OccupancyRate: 56.9444444444" role="graphics-symbol" aria-roledescription="bar" d="M41,57.638888888888886h18v142.36111111111111h-18Z" fill="rgb(34, 113, 179)"/><path aria-label="Room: S201; OccupancyRate: 56.25" role="graphics-symbol" aria-roledescription="bar" d="M61,59.375h18v140.625h-18Z" fill="rgb(36, 115, 180)"/><path aria-label="Room: D202; OccupancyRate: 54.1666666667" role="graphics-symbol" aria-roledescription="bar" d="M81,64.58333333333334h18v135.41666666666666h-18Z" fill="rgb(41, 120, 184)"/><path aria-label="Room: S101; OccupancyRate: 53.4722222222" role="graphics-symbol" aria-roledescription="bar" d="M101,66.31944444444444h18v133.68055555555554h-18Z" fill="rgb(43, 122, 185)"/><path aria-label="Room: S203; OccupancyRate: 52.7777777778" role="graphics-symbol" aria-roledescription="bar" d="M121,68.05555555555556h18v131.94444444444446h-18Z" fill="rgb(44, 124, 186)"/><path aria-label="Room: S103; OccupancyRate: 52.0833333333" role="graphics-symbol" aria-roledescription="bar" d="M141,69.79166666666666h18v130.20833333333334h-18Z" fill="rgb(46, 126, 187)"/><path aria-label="Room: P104; OccupancyRate: 51.3888888889" role="graphics-symbol" aria-roledescription="bar" d="M161,71.52777777777779h18v128.47222222222223h-18Z" fill="rgb(48, 128, 188)"/><path aria-label="Room: B101; OccupancyRate: 50.6944444444" role="graphics-symbol" aria-roledescription="bar" d="M181,73.26388888888889h18v126.73611111111111h-18Z" fill="rgb(50, 130, 189)"/><path aria-label="Room: P202; OccupancyRate: 50" role="graphics-symbol" aria-roledescription="bar" d="M201,75h18v125h-18Z" fill="rgb(52, 131, 190)"/><path aria-label="Room: P101; OccupancyRate: 50" role="graphics-symbol" aria-roledescription="bar" d="M221,75h18v125h-18Z" fill="rgb(52, 131, 190)"/><path aria-label="Room: B202; OccupancyRate: 47.2222222222" role="graphics-symbol" aria-roledescription="bar" d="M241,81.94444444444444h18v118.05555555555556h-18Z" fill="rgb(60, 138, 194)"/><path aria-label="Room: S104; OccupancyRate: 45.8333333333" role="graphics-symbol" aria-roledescription="bar" d="M261,85.41666666666667h18v114.58333333333333h-18Z" fill="rgb(64, 142, 196)"/><path aria-label="Room: P102; OccupancyRate: 45.1388888889" role="graphics-symbol" aria-roledescription="bar" d="M281,87.15277777777777h18v112.84722222222223h-18Z" fill="rgb(66, 143, 197)"/><path aria-label="Room: P103; OccupancyRate: 44.4444444444" role="graphics-symbol" aria-roledescription="bar" d="M301,88.88888888888889h18v111.11111111111111h-18Z" fill="rgb(68, 145, 197)"/><path aria-label="Room: S204; OccupancyRate: 44.4444444444" role="graphics-symbol" aria-roledescription="bar" d="M321,88.88888888888889h18v111.11111111111111h-18Z" fill="rgb(68, 145, 197)"/><path aria-label="Room: S102; OccupancyRate: 44.4444444444" role="graphics-symbol" aria-roledescription="bar" d="M341,88.88888888888889h18v111.11111111111111h-18Z" fill="rgb(68, 145, 197)"/><path aria-label="Room: D201; OccupancyRate: 41.6666666667" role="graphics-symbol" aria-roledescription="bar" d="M361,95.83333333333333h18v104.16666666666667h-18Z" fill="rgb(77, 152, 201)"/><path aria-label="Room: C002; OccupancyRate: 40.2777777778" role="graphics-symbol" aria-roledescription="bar" d="M381,99.30555555555556h18v100.69444444444444h-18Z" fill="rgb(81, 155, 203)"/><path aria-label="Room: A108; OccupancyRate: 38.8888888889" role="graphics-symbol" aria-roledescription="bar" d="M401,102.77777777777777h18v97.22222222222223h-18Z" fill="rgb(85, 159, 205)"/><path aria-label="Room: P201; OccupancyRate: 37.5" role="graphics-symbol" aria-roledescription="bar" d="M421,106.25h18v93.75h-18Z" fill="rgb(90, 162, 207)"/><path aria-label="Room: C105; OccupancyRate: 36.1111111111" role="graphics-symbol" aria-roledescription="bar" d="M441,109.72222222222223h18v90.27777777777777h-18Z" fill="rgb(95, 165, 208)"/><path aria-label="Room: C207; OccupancyRate: 36.1111111111" role="graphics-symbol" aria-roledescription="bar" d="M461,109.72222222222223h18v90.27777777777777h-18Z" fill="rgb(95, 165, 208)"/><path aria-label="Room: C203; OccupancyRate: 36.1111111111" role="graphics-symbol" aria-roledescription="bar" d="M481,109.72222222222223h18v90.27777777777777h-18Z" fill="rgb(95, 165, 208)"/><path aria-label="Room: B201; OccupancyRate: 34.7222222222" role="graphics-symbol" aria-roledescription="bar" d="M501,113.19444444444444h18v86.80555555555556h-18Z" fill="rgb(100, 168, 210)"/><path aria-label="Room: B203; OccupancyRate: 34.7222222222" role="graphics-symbol" aria-roledescription="bar" d="M521,113.19444444444444h18v86.80555555555556h-18Z" fill="rgb(100, 168, 210)"/><path aria-label="Room: C103; OccupancyRate: 33.3333333333" role="graphics-symbol" aria-roledescription="bar" d="M541,116.66666666666667h18v83.33333333333333h-18Z" fill="rgb(105, 171, 211)"/><path aria-label="Room: J002; OccupancyRate: 33.3333333333" role="graphics-symbol" aria-roledescription="bar" d="M561,116.66666666666667h18v83.33333333333333h-18Z" fill="rgb(105, 171, 211)"/><path aria-label="Room: C204; OccupancyRate: 33.3333333333" role="graphics-symbol" aria-roledescription="bar" d="M581,116.66666666666667h18v83.33333333333333h-18Z" fill="rgb(105, 171, 211)"/><path aria-label="Room: A001; OccupancyRate: 32.6388888889" role="graphics-symbol" aria-roledescription="bar" d="M601,118.40277777777777h18v81.59722222222223h-18Z" fill="rgb(107, 173, 212)"/><path aria-label="Room: S202; OccupancyRate: 32.6388888889" role="graphics-symbol" aria-roledescription="bar" d="M621,118.40277777777777h18v81.59722222222223h-18Z" fill="rgb(107, 173, 212)"/><path aria-label="Room: A105; OccupancyRate: 32.6388888889" role="graphics-symbol" aria-roledescription="bar" d="M641,118.40277777777777h18v81.59722222222223h-18Z" fill="rgb(107, 173, 212)"/><path aria-label="Room: A206; OccupancyRate: 31.9444444444" role="graphics-symbol" aria-roledescription="bar" d="M661,120.13888888888889h18v79.86111111111111h-18Z" fill="rgb(110, 174, 213)"/><path aria-label="Room: P204; OccupancyRate: 31.9444444444" role="graphics-symbol" aria-roledescription="bar" d="M681,120.13888888888889h18v79.86111111111111h-18Z" fill="rgb(110, 174, 213)"/><path aria-label="Room: B205; OccupancyRate: 31.9444444444" role="graphics-symbol" aria-roledescription="bar" d="M701,120.13888888888889h18v79.86111111111111h-18Z" fill="rgb(110, 174, 213)"/><path aria-label="Room: B105; OccupancyRate: 31.25" role="graphics-symbol" aria-roledescription="bar" d="M721,121.875h18v78.125h-18Z" fill="rgb(112, 176, 214)"/><path aria-label="Room: A205; OccupancyRate: 30.5555555556" role="graphics-symbol" aria-roledescription="bar" d="M741,123.61111111111111h18v76.38888888888889h-18Z" fill="rgb(115, 177, 215)"/><path aria-label="Room: A210; OccupancyRate: 29.1666666667" role="graphics-symbol" aria-roledescription="bar" d="M761,127.08333333333333h18v72.91666666666667h-18Z" fill="rgb(120, 180, 216)"/><path aria-label="Room: C104; OccupancyRate: 27.7777777778" role="graphics-symbol" aria-roledescription="bar" d="M781,130.55555555555557h18v69.44444444444443h-18Z" fill="rgb(126, 183, 218)"/><path aria-label="Room: C210; OccupancyRate: 27.7777777778" role="graphics-symbol" aria-roledescription="bar" d="M801,130.55555555555557h18v69.44444444444443h-18Z" fill="rgb(126, 183, 218)"/><path aria-label="Room: B208; OccupancyRate: 25.6944444444" role="graphics-symbol" aria-roledescription="bar" d="M821,135.76388888888889h18v64.23611111111111h-18Z" fill="rgb(134, 188, 220)"/><path aria-label="Room: A208; OccupancyRate: 25" role="graphics-symbol" aria-roledescription="bar" d="M841,137.5h18v62.5h-18Z" fill="rgb(137, 190, 220)"/><path aria-label="Room: M207; OccupancyRate: 25" role="graphics-symbol" aria-roledescription="bar" d="M861,137.5h18v62.5h-18Z" fill="rgb(137, 190, 220)"/><path aria-label="Room: D102; OccupancyRate: 25" role="graphics-symbol" aria-roledescription="bar" d="M881,137.5h18v62.5h-18Z" fill="rgb(137, 190, 220)"/><path aria-label="Room: D101; OccupancyRate: 25" role="graphics-symbol" aria-roledescription="bar" d="M901,137.5h18v62.5h-18Z" fill="rgb(137, 190, 220)"/><path aria-label="Room: C205; OccupancyRate: 25" role="graphics-symbol" aria-roledescription="bar" d="M921,137.5h18v62.5h-18Z" fill="rgb(137, 190, 220)"/><path aria-label="Room: C001; OccupancyRate: 24.3055555556" role="graphics-symbol" aria-roledescription="bar" d="M941,139.23611111111111h18v60.763888888888886h-18Z" fill="rgb(139, 191, 221)"/><path aria-label="Room: C102; OccupancyRate: 24.3055555556" role="graphics-symbol" aria-roledescription="bar" d="M961,139.23611111111111h18v60.763888888888886h-18Z" fill="rgb(139, 191, 221)"/><path aria-label="Room: B204; OccupancyRate: 23.6111111111" role="graphics-symbol" aria-roledescription="bar" d="M981,140.97222222222223h18v59.02777777777777h-18Z" fill="rgb(142, 193, 222)"/><path aria-label="Room: D206; OccupancyRate: 23.6111111111" role="graphics-symbol" aria-roledescription="bar" d="M1001,140.97222222222223h18v59.02777777777777h-18Z" fill="rgb(142, 193, 222)"/><path aria-label="Room: A201; OccupancyRate: 22.2222222222" role="graphics-symbol" aria-roledescription="bar" d="M1021,144.44444444444443h18v55.55555555555557h-18Z" fill="rgb(147, 195, 223)"/><path aria-label="Room: C201; OccupancyRate: 22.2222222222" role="graphics-symbol" aria-roledescription="bar" d="M1041,144.44444444444443h18v55.55555555555557h-18Z" fill="rgb(147, 195, 223)"/><path aria-label="Room: C208; OccupancyRate: 22.2222222222" role="graphics-symbol" aria-roledescription="bar" d="M1061,144.44444444444443h18v55.55555555555557h-18Z" fill="rgb(147, 195, 223)"/><path aria-label="Room: A103; OccupancyRate: 21.5277777778" role="graphics-symbol" aria-roledescription="bar" d="M1081,146.18055555555557h18v53.81944444444443h-18Z" fill="rgb(150, 197, 224)"/><path aria-label="Room: N101; OccupancyRate: 20.8333333333" role="graphics-symbol" aria-roledescription="bar" d="M1101,147.91666666666666h18v52.08333333333334h-18Z" fill="rgb(152, 198, 225)"/><path aria-label="Room: B106; OccupancyRate: 20.8333333333" role="graphics-symbol" aria-roledescription="bar" d="M1121,147.91666666666666h18v52.08333333333334h-18Z" fill="rgb(152, 198, 225)"/><path aria-label="Room: B207; OccupancyRate: 20.8333333333" role="graphics-symbol" aria-roledescription="bar" d="M1141,147.91666666666666h18v52.08333333333334h-18Z" fill="rgb(152, 198, 225)"/><path aria-label="Room: B007; OccupancyRate: 20.8333333333" role="graphics-symbol" aria-roledescription="bar" d="M1161,147.91666666666666h18v52.08333333333334h-18Z" fill="rgb(152, 198, 225)"/><path aria-label="Room: D105; OccupancyRate: 20.8333333333" role="graphics-symbol" aria-roledescription="bar" d="M1181,147.91666666666666h18v52.08333333333334h-18Z" fill="rgb(152, 198, 225)"/><path aria-label="Room: D106; OccupancyRate: 20.8333333333" role="graphics-symbol" aria-roledescription="bar" d="M1201,147.91666666666666h18v52.08333333333334h-18Z" fill="rgb(152, 198, 225)"/><path aria-label="Room: A102; OccupancyRate: 19.4444444444" role="graphics-symbol" aria-roledescription="bar" d="M1221,151.38888888888889h18v48.611111111111114h-18Z" fill="rgb(157, 200, 226)"/><path aria-label="Room: M102; OccupancyRate: 19.4444444444" role="graphics-symbol" aria-roledescription="bar" d="M1241,151.38888888888889h18v48.611111111111114h-18Z" fill="rgb(157, 200, 226)"/><path aria-label="Room: C206; OccupancyRate: 19.4444444444" role="graphics-symbol" aria-roledescription="bar" d="M1261,151.38888888888889h18v48.611111111111114h-18Z" fill="rgb(157, 200, 226)"/><path aria-label="Room: A203; OccupancyRate: 18.0555555556" role="graphics-symbol" aria-roledescription="bar" d="M1281,154.86111111111111h18v45.138888888888886h-18Z" fill="rgb(162, 203, 227)"/><path aria-label="Room: A002; OccupancyRate: 16.6666666667" role="graphics-symbol" aria-roledescription="bar" d="M1301,158.33333333333334h18v41.66666666666666h-18Z" fill="rgb(167, 206, 229)"/><path aria-label="Room: B210; OccupancyRate: 16.6666666667" role="graphics-symbol" aria-roledescription="bar" d="M1321,158.33333333333334h18v41.66666666666666h-18Z" fill="rgb(167, 206, 229)"/><path aria-label="Room: B001; OccupancyRate: 16.6666666667" role="graphics-symbol" aria-roledescription="bar" d="M1341,158.33333333333334h18v41.66666666666666h-18Z" fill="rgb(167, 206, 229)"/><path aria-label="Room: J101; OccupancyRate: 16.6666666667" role="graphics-symbol" aria-roledescription="bar" d="M1361,158.33333333333334h18v41.66666666666666h-18Z" fill="rgb(167, 206, 229)"/><path aria-label="Room: M208; OccupancyRate: 16.6666666667" role="graphics-symbol" aria-roledescription="bar" d="M1381,158.33333333333334h18v41.66666666666666h-18Z" fill="rgb(167, 206, 229)"/><path aria-label="Room: J004; OccupancyRate: 16.6666666667" role="graphics-symbol" aria-roledescription="bar" d="M1401,158.33333333333334h18v41.66666666666666h-18Z" fill="rgb(167, 206, 229)"/><path aria-label="Room: B209; OccupancyRate: 15.2777777778" role="graphics-symbol" aria-roledescription="bar" d="M1421,161.80555555555557h18v38.19444444444443h-18Z" fill="rgb(172, 208, 230)"/><path aria-label="Room: A207; OccupancyRate: 13.8888888889" role="graphics-symbol" aria-roledescription="bar" d="M1441,165.27777777777777h18v34.72222222222223h-18Z" fill="rgb(176, 210, 232)"/><path aria-label="Room: D002; OccupancyRate: 12.5" role="graphics-symbol" aria-roledescription="bar" d="M1461,168.75h18v31.25h-18Z" fill="rgb(181, 212, 233)"/><path aria-label="Room: J105; OccupancyRate: 11.1111111111" role="graphics-symbol" aria-roledescription="bar" d="M1481,172.22222222222223h18v27.77777777777777h-18Z" fill="rgb(185, 214, 235)"/><path aria-label="Room: J102; OccupancyRate: 11.1111111111" role="graphics-symbol" aria-roledescription="bar" d="M1501,172.22222222222223h18v27.77777777777777h-18Z" fill="rgb(185, 214, 235)"/><path aria-label="Room: A212; OccupancyRate: 11.1111111111" role="graphics-symbol" aria-roledescription="bar" d="M1521,172.22222222222223h18v27.77777777777777h-18Z" fill="rgb(185, 214, 235)"/><path aria-label="Room: IUT1; OccupancyRate: 11.1111111111" role="graphics-symbol" aria-roledescription="bar" d="M1541,172.22222222222223h18v27.77777777777777h-18Z" fill="rgb(185, 214, 235)"/><path aria-label="Room: G002; OccupancyRate: 11.1111111111" role="graphics-symbol" aria-roledescription="bar" d="M1561,172.22222222222223h18v27.77777777777777h-18Z" fill="rgb(185, 214, 235)"/><path aria-label="Room: M204; OccupancyRate: 8.33333333333" role="graphics-symbol" aria-roledescription="bar" d="M1581,179.16666666666669h18v20.833333333333314h-18Z" fill="rgb(193, 218, 237)"/><path aria-label="Room: C202; OccupancyRate: 5.55555555556" role="graphics-symbol" aria-roledescription="bar" d="M1601,186.11111111111111h18v13.888888888888886h-18Z" fill="rgb(200, 221, 240)"/><path aria-label="Room: SPOR; OccupancyRate: 5.55555555556" role="graphics-symbol" aria-roledescription="bar" d="M1621,186.11111111111111h18v13.888888888888886h-18Z" fill="rgb(200, 221, 240)"/><path aria-label="Room: B005; OccupancyRate: 5.55555555556" role="graphics-symbol" aria-roledescription="bar" d="M1641,186.11111111111111h18v13.888888888888886h-18Z" fill="rgb(200, 221, 240)"/><path aria-label="Room: D108; OccupancyRate: 4.16666666667" role="graphics-symbol" aria-roledescription="bar" d="M1661,189.58333333333331h18v10.416666666666686h-18Z" fill="rgb(204, 223, 241)"/><path aria-label="Room: C101; OccupancyRate: 2.77777777778" role="graphics-symbol" aria-roledescription="bar" d="M1681,193.05555555555557h18v6.944444444444429h-18Z" fill="rgb(207, 225, 242)"/></g><g class="mark-group role-legend" role="graphics-symbol" aria-roledescription="legend" aria-label="Gradient legend titled 'Taux d'occupation / Occupancy Rate' for fill color with values from 3 to 72"><g transform="translate(1718,0)"><path class="background" aria-hidden="true" d="M0,0h179v219h-179Z" pointer-events="none"/><g><g class="mark-group role-legend-entry"><g transform="translate(0,19)"><path class="background" aria-hidden="true" d="M0,0h0v0h0Z" pointer-events="none"/><g><g class="mark-rect role-legend-gradient" pointer-events="none"><path d="M0,0h16v200h-16Z" fill="url(#gradient_0)" stroke="#ddd" stroke-width="0" opacity="1"/></g><g class="mark-text role-legend-label" pointer-events="none"><text text-anchor="start" transform="translate(18,153.8989898989899)" font-family="sans-serif" font-size="12px" fill="#000" opacity="1">20</text><text text-anchor="start" transform="translate(18,95.71717171717175)" font-family="sans-serif" font-size="12px" fill="#000" opacity="1">40</text><text text-anchor="start" transform="translate(18,37.53535353535357)" font-family="sans-serif" font-size="12px" fill="#000" opacity="1">60</text></g></g><path class="foreground" aria-hidden="true" d="" pointer-events="none" display="none"/></g></g><g class="mark-text role-legend-title" pointer-events="none"><text text-anchor="start" transform="translate(0,11)" font-family="sans-serif" font-size="14px" font-weight="bold" fill="#000" opacity="1">Taux d'occupati…</text></g></g><path class="foreground" aria-hidden="true" d="" pointer-events="none" display="none"/></g></g></g><path class="foreground" aria-hidden="true" d="" display="none"/></g></g></g><defs><linearGradient id="gradient_0" x1="0" x2="0" y1="1" y2="0"><stop offset="0" stop-color="rgb(207, 225, 242)"/><stop offset="0.032323232323232316" stop-color="rgb(202, 222, 240)"/><stop offset="0.10505050505050503" stop-color="rgb(189, 215, 236)"/><stop offset="0.17777777777777773" stop-color="rgb(173, 208, 231)"/><stop offset="0.25050505050505045" stop-color="rgb(155, 199, 225)"/><stop offset="0.32323232323232315" stop-color="rgb(137, 190, 220)"/><stop offset="0.39595959595959584" stop-color="rgb(117, 179, 215)"/><stop offset="0.4686868686868686" stop-color="rgb(99, 168, 210)"/><stop offset="0.5414141414141412" stop-color="rgb(82, 156, 203)"/><stop offset="0.614141414141414" stop-color="rgb(66, 144, 197)"/><stop offset="0.6868686868686867" stop-color="rgb(52, 131, 190)"/><stop offset="0.7595959595959594" stop-color="rgb(39, 118, 182)"/><stop offset="0.8323232323232321" stop-color="rgb(27, 105, 173)"/><stop offset="0.9050505050505049" stop-color="rgb(18, 91, 163)"/><stop offset="0.9777777777777776" stop-color="rgb(12, 78, 148)"/><stop offset="1" stop-color="rgb(10, 74, 144)"/></linearGradient></defs></svg>